<svg width="520" height="140" viewBox="0 0 520 140" fill="none" xmlns="http://www.w3.org/2000/svg" role="img" aria-label="SMV Tiffin & Masal Point logo">
  <defs>
    <linearGradient id="warm" x1="0" y1="0" x2="1" y2="1">
      <stop offset="0%" stop-color="#8E1F1F"/>
      <stop offset="55%" stop-color="#C86A1C"/>
      <stop offset="100%" stop-color="#D4A017"/>
    </linearGradient>
  </defs>

  <g transform="translate(10 12)">
    <circle cx="58" cy="58" r="52" fill="url(#warm)"/>
    <path d="M26 69C26 86 40 98 58 98C76 98 90 86 90 69H26Z" fill="#FFF7ED"/>
    <path d="M36 69H80" stroke="#8E1F1F" stroke-width="4" stroke-linecap="round"/>
    <path d="M47 44C44 39 45 34 49 30" stroke="#FFF7ED" stroke-width="4" stroke-linecap="round"/>
    <path d="M60 42C57 37 58 32 62 28" stroke="#FFF7ED" stroke-width="4" stroke-linecap="round"/>
    <path d="M72 45C69 40 70 35 74 31" stroke="#FFF7ED" stroke-width="4" stroke-linecap="round"/>
    <path d="M91 48C102 50 108 58 106 66" stroke="#FFF7ED" stroke-width="5" stroke-linecap="round"/>
  </g>

  <g transform="translate(128 24)">
    <text x="0" y="42" font-family="Baloo 2, Segoe UI, Arial, sans-serif" font-size="46" font-weight="700" fill="#8E1F1F">SMV</text>
    <text x="0" y="76" font-family="Montserrat, Segoe UI, Arial, sans-serif" font-size="25" font-weight="700" fill="#C86A1C">Tiffin &amp; Masal Point</text>
    <rect x="0" y="90" width="256" height="6" rx="3" fill="#D4A017"/>
  </g>
</svg>
